PathFileType	4	(X/Y/Z)	C:\Users\WrightLab\Desktop\Jo\P2_Trial40.trc
DataRate	CameraRate	NumFrames	NumMarkers	Units	OrigDataRate	OrigDataStartFrame	OrigNumFrames
100.00	100.00	       18	19	mm	100.00	120	       479
Frame#	Time	Headset_Front			Headset_Back			Headset_Left			Headset_Right			Left_Shoulder			Right_Shoulder			Sternum			C7			Left Elbow			Right Elbow			Left Wrist			Right Wrist			Left ASIS			Right ASIS			S2			Left Knee			Right Knee			Left Ankle			Right Ankle			
		X1	Y1	Z1	X2	Y2	Z2	X3	Y3	Z3	X4	Y4	Z4	X5	Y5	Z5	X6	Y6	Z6	X7	Y7	Z7	X8	Y8	Z8	X9	Y9	Z9	X10	Y10	Z10	X11	Y11	Z11	X12	Y12	Z12	X13	Y13	Z13	X14	Y14	Z14	X15	Y15	Z15	X16	Y16	Z16	X17	Y17	Z17	X18	Y18	Z18	X19	Y19	Z19	

120	1.190	-614.08740	1459.65076	-17.36929	-674.82507	1659.15308	-249.65649	-546.44580	1555.68701	-196.08794	-736.36029	1538.53247	-67.12710	-529.50049	1410.88049	-253.51509	-858.92767	1396.49585	-212.12581	-685.14124	1289.21362	-164.27072	-717.93726	1395.43933	-340.80664	-458.91071	1079.56104	-155.94049	-970.88641	1072.02759	-274.44678	-465.27197	848.63019	-76.51232	-1006.35419	818.05829	-253.42148	-613.08636	987.04041	-142.56232	-747.61273	983.19922	-118.65178	-715.74969	907.49854	-383.72516	-584.23468	409.57330	-331.16376	-848.82007	551.21350	-80.03627	-605.38257	174.74867	-552.79480	-735.18188	205.42018	133.09473	
121	1.200	-610.19061	1461.37170	-9.06475	-672.64691	1660.92432	-238.41846	-544.06738	1557.98877	-187.13660	-732.13257	1539.06018	-55.45341	-528.05542	1412.85095	-246.13248	-855.51593	1398.91040	-196.74113	-681.80121	1291.03894	-154.15828	-718.94910	1398.54150	-329.94229	-454.57449	1080.91357	-151.70370	-969.97241	1073.52930	-256.51074	-460.62665	849.15918	-75.06790	-1006.28143	820.36731	-233.12500	-609.70685	989.80957	-132.71014	-742.50031	984.22540	-109.45862	-717.29309	909.62115	-374.69696	-585.33630	409.69012	-309.65506	-852.08228	553.25116	-65.96795	-610.80890	184.71414	-531.68793	-728.30603	196.81723	135.05209	
122	1.210	-605.87097	1462.83557	0.05885	-670.20972	1662.74841	-228.62273	-541.05701	1559.34949	-178.11562	-727.90039	1541.85400	-44.18447	-526.79663	1415.08398	-239.23514	-853.24933	1400.76953	-182.96089	-678.71417	1292.52258	-143.72823	-719.47266	1400.88879	-318.58316	-453.27646	1081.13757	-148.30870	-968.71661	1075.08740	-238.45888				-1004.47913	821.69446	-212.13904	-605.82001	991.07428	-126.94426	-737.77258	985.59076	-101.81219	-718.90314	912.12970	-365.68198	-586.86768	409.40247	-287.47751	-853.99658	554.82349	-50.93370	-614.92267	194.91635	-510.14142	-721.45410	187.81395	136.45517	
123	1.220	-601.13434	1464.73181	10.86648	-667.64301	1664.67346	-218.69556	-538.38239	1561.14417	-168.70721	-723.61096	1543.56836	-33.87136	-525.93060	1417.21985	-231.45433	-851.13776	1403.08447	-169.09123	-674.93842	1294.10474	-135.23015	-720.15381	1403.85120	-308.19043	-449.26999	1083.43103	-145.17509	-967.59363	1076.75439	-220.64592	-451.11261	848.06689	-76.24653	-1003.16498	824.17688	-190.87859	-602.60413	991.84546	-121.51030	-733.67377	987.17255	-92.55730	-720.47540	913.95294	-356.14120	-582.98224	413.31070	-266.67148	-855.93683	557.69690	-37.06432	-619.74689	203.48006	-486.03021	-716.22253	178.79134	136.61745	
124	1.230	-597.66901	1467.62512	20.27413	-664.86298	1666.68994	-208.39153	-535.38177	1562.06970	-155.93475	-719.95367	1546.43823	-22.98391	-524.65100	1419.53516	-225.11508	-848.45770	1404.69299	-154.77138	-671.09265	1295.79773	-126.13863	-720.51575	1406.53491	-296.59680	-445.97455	1084.38000	-143.12987	-966.95984	1078.85742	-202.83263	-445.23077	847.71045	-77.19100	-1001.57031	826.93701	-169.62624	-596.81964	994.47089	-114.59241	-727.81317	987.67804	-81.70486	-721.52948	915.79822	-347.03271	-576.09882	418.56714	-245.46046	-854.96301	559.64392	-24.88491	-624.62274	212.16046	-463.59357	-711.81750	171.89207	135.31192	
125	1.240	-592.34174	1469.06714	29.03394	-661.98596	1668.53748	-198.05792	-532.22998	1563.52087	-149.09557	-715.95709	1549.30457	-12.49582	-523.68518	1422.38477	-218.11186	-845.65686	1406.83484	-141.71855	-667.40533	1298.00732	-115.00468	-721.87073	1410.24182	-286.33734	-442.58206	1085.81628	-140.65057	-965.03070	1080.97021	-184.63441	-439.86667	847.14429	-78.52444	-998.37567	828.77942	-148.33377	-593.44415	996.07373	-109.06084	-724.25159	988.48120	-74.36279	-722.53723	919.10553	-339.15610	-567.62836	424.22305	-225.37579	-853.48865	561.05389	-13.96167	-627.23004	219.76797	-439.47021	-709.03571	167.86430	131.70509	
126	1.250	-587.08258	1470.02124	38.62156	-658.97516	1670.15369	-188.09419	-529.31464	1564.46777	-140.30280	-708.90747	1550.73914	-0.57102	-522.88239	1424.51416	-211.48642	-842.58600	1407.17151	-128.95409	-664.25177	1300.69495	-103.92310	-721.78943	1411.87805	-274.44223	-438.53217	1086.89795	-138.88316	-962.81592	1083.42920	-167.12280	-432.85919	850.24475	-77.30872	-996.85333	832.02502	-126.70281	-588.87842	999.00128	-102.77071	-718.20685	990.07178	-62.67621	-722.68500	921.60449	-329.95493	-558.39783	430.23450	-205.14340	-851.02094	562.01904	-4.02684	-629.41473	227.46075	-414.60919	-708.34454	165.02420	128.16130	
127	1.260	-581.50604	1470.26892	46.34435				-526.03607	1565.21948	-133.56537	-704.82141	1553.11206	9.94652	-521.80725	1426.84631	-204.84225	-840.02582	1409.26160	-115.12820	-660.69000	1300.88098	-96.90855	-722.98340	1415.44202	-264.24677	-434.58615	1088.19592	-137.67972	-961.33698	1085.66504	-149.20415	-426.60391	851.80084	-77.66803	-993.20178	834.72424	-105.24963	-585.05627	1002.00549	-95.70277	-714.12811	990.71509	-55.67773	-722.99829	925.47009	-322.56702	-550.21185	436.09570	-184.00323	-849.53131	563.39832	3.74132	-628.97827	233.88011	-389.54327	-708.54016	162.59883	123.70486	
128	1.270	-576.82892	1472.02930	55.32443				-523.00085	1566.49902	-127.90540	-698.60950	1554.84912	20.93305	-521.00586	1429.15918	-198.48190	-837.18719	1411.46082	-101.18536	-658.38495	1302.76147	-87.33459	-722.97528	1416.86035	-252.32362	-430.61322	1090.09558	-137.52605	-959.18567	1087.86865	-131.63165	-420.62225	853.22266	-76.70065	-990.21808	838.37579	-83.59739	-581.81653	1003.55200	-88.92465	-709.25964	992.28107	-48.47672	-721.88397	927.99896	-314.27612	-541.09332	441.56213	-161.27974	-843.54468	564.71429	8.23814	-628.02216	239.47655	-363.74356	-709.43353	160.77318	119.18054	
129	1.280	-571.42432	1473.61206	62.80069	-649.48358	1674.86609	-158.63351	-519.55670	1566.37671	-117.80929	-693.33105	1556.35864	31.11275	-520.03137	1431.18909	-191.45245	-833.44757	1413.37561	-88.14373	-654.09576	1302.66931	-82.69127	-723.31134	1419.22046	-241.37456	-426.21741	1091.79028	-136.49518	-956.55872	1090.13550	-113.65746	-412.65381	852.83331	-83.34086	-987.05908	841.03094	-61.87841	-576.53241	1006.22638	-82.51794	-704.68268	994.31036	-39.67213	-720.72296	930.57153	-306.65057	-531.78351	446.86072	-137.95781	-839.43274	566.55548	12.48873	-626.65393	245.20898	-337.46622	-709.31549	157.16870	113.83976	
130	1.290	-565.91333	1473.83228	72.32223	-646.04346	1676.48181	-148.98744	-516.99792	1567.96008	-117.93330	-687.57452	1558.43994	41.33553	-519.16870	1433.13269	-185.05670	-830.30945	1415.37000	-75.60940	-651.10162	1305.25708	-72.14848	-723.63416	1421.59692	-230.64473	-421.55075	1093.23169	-135.90509	-954.53796	1093.07288	-95.62207	-405.96066	853.69623	-85.74152	-982.71021	844.28601	-41.53293	-573.99609	1009.13141	-76.62405	-700.51282	995.97937	-30.13737	-718.64948	933.37744	-299.03732	-522.31000	451.06512	-113.24427	-834.83838	566.87000	16.08648	-623.34033	250.44377	-312.28586	-708.19867	155.72168	109.26433	
131	1.300	-559.87433	1474.50635	80.21447	-642.49030	1678.19446	-138.99297	-512.81335	1567.76794	-108.99891	-681.95007	1560.39685	51.42766	-518.26300	1435.58069	-178.85066	-826.27966	1416.81287	-63.23089	-647.66376	1306.37292	-65.54719	-723.10535	1423.99927	-220.51048	-417.63501	1094.99292	-135.29674	-951.54431	1095.06372	-77.91381	-399.65073	856.17694	-86.78804	-979.06293	846.85596	-19.32193	-571.27850	1010.89850	-70.79486	-695.42975	998.04083	-23.46719	-717.19342	935.58441	-291.23502	-511.51871	456.45523	-91.00919	-831.63965	564.26654	17.77456	-621.22253	254.39911	-284.64026	-710.53381	151.24554	103.09843	
132	1.310	-554.95361	1475.02393	87.12276	-638.94501	1679.74402	-128.87669	-509.93332	1568.18884	-97.43742	-676.60779	1561.90759	61.93784	-517.05566	1436.95471	-172.27301	-822.46265	1418.39636	-49.86419	-644.53149	1308.37769	-57.41727	-722.76953	1425.97412	-210.08226	-413.34750	1096.44604	-135.37183	-949.02454	1097.26685	-59.09915	-391.30145	858.01959	-90.37919	-975.09277	850.85693	2.55258	-566.68512	1015.14130	-63.24208	-691.78857	999.63531	-14.39123	-714.97046	938.01349	-283.30350	-501.18008	460.92303	-67.91039	-827.73547	563.99689	20.90886	-617.30206	257.14566	-257.89471	-710.00201	147.73958	98.93945	
133	1.320	-549.45483	1474.81641	93.81109	-635.30737	1681.21155	-120.34264	-506.74133	1568.76819	-90.43209	-671.16235	1562.69861	71.61651	-515.61340	1439.35779	-165.33708	-818.24591	1420.46936	-38.59922	-640.69507	1309.33289	-49.72050	-722.34711	1428.16760	-199.94501	-408.90884	1098.38574	-134.29716	-945.59406	1099.68884	-41.70387	-384.16306	860.13202	-91.04556	-969.79797	853.08606	24.81120	-563.75189	1016.32874	-58.25693	-688.54120	1001.56842	-7.16060	-712.80011	940.71704	-276.12204	-488.34787	466.10797	-48.66695	-823.99164	561.76837	23.83012	-613.38116	259.16516	-232.57152	-709.63019	144.26260	96.68341	
134	1.330	-545.26801	1474.70386	98.32545	-631.84583	1682.17480	-110.30459	-503.27173	1569.39319	-85.16589	-664.35376	1563.40430	81.27794	-514.03363	1441.26123	-159.18065	-814.72174	1422.54443	-26.07508	-636.77032	1310.95618	-40.86993	-721.31500	1429.96472	-188.98495	-404.65546	1100.24976	-134.79042	-942.41705	1101.80261	-23.49220	-376.42719	863.15491	-87.30624	-965.89594	856.48853	45.27123	-561.77765	1018.34778	-51.70055	-683.92731	1002.62994	-0.65368	-710.05548	941.85553	-267.66290	-476.98196	471.56155	-29.17712	-820.25372	559.03491	26.41953	-609.03015	259.70132	-205.63972	-711.01141	138.74088	91.93186	
135	1.340	-539.08875	1476.65796	110.18025	-628.10797	1683.52295	-100.29255	-499.84564	1569.07422	-78.53838	-659.74768	1564.78247	90.71323	-512.63104	1442.84705	-152.84291	-809.92261	1423.53967	-14.16608	-633.27277	1313.24451	-30.69484	-719.89612	1431.08618	-178.73236	-400.70993	1101.59741	-134.23180	-938.89612	1103.64404	-5.86868	-370.49490	864.23993	-90.30103	-961.12866	860.07721	67.78064	-558.63824	1019.49609	-44.87902	-681.03333	1003.92346	8.15732	-707.38507	943.79169	-260.20651	-466.96716	478.47299	-11.63092	-817.31366	556.48352	28.26676	-603.88226	259.52994	-180.07060	-711.71210	135.81422	90.08099	
136	1.350	-533.19958	1476.55078	117.63253	-624.30481	1684.83044	-91.77126	-496.70630	1569.55750	-70.65553	-653.04456	1565.35400	100.78446	-510.58411	1443.79736	-145.35680	-805.40942	1424.04578	-2.78747	-628.37836	1313.03308	-25.99182	-718.35663	1432.41675	-168.74078	-396.66959	1103.21692	-134.54779	-934.72766	1105.75073	12.22622				-956.34833	863.18103	89.17354	-554.57593	1021.70435	-36.37383	-677.56403	1003.57745	16.50290	-705.04352	945.12164	-252.64745	-457.84201	487.58612	2.81369	-814.37366	553.85223	29.20040	-597.22003	258.02057	-154.60312	-712.76263	130.79921	87.62331	
137	1.360	-528.17841	1476.81177	125.80196				-492.68835	1569.73816	-63.47471	-647.65796	1566.20520	110.01690	-508.24866	1444.73975	-139.02415	-801.41791	1425.65674	8.55435	-625.01678	1314.36145	-15.88018	-716.74524	1433.57544	-159.11826	-392.53629	1104.45056	-133.83650	-930.72528	1108.01599	29.59686	-358.57571	864.39069	-103.58498	-951.60852	866.23114	110.87327	-551.78931	1022.14069	-30.96852	-673.44604	1004.31140	23.50308	-702.50153	946.44849	-244.82816	-448.85233	496.31375	16.26909	-811.40143	550.96582	31.01629	-587.47675	253.98860	-130.78212	-714.58234	126.21124	81.70448	
